<svg xmlns="http://www.w3.org/2000/svg" viewBox="0 0 1200 680" role="img" aria-labelledby="t d" font-family="Segoe UI, Arial, sans-serif">
  <title id="t">Contract Lifecycle Management architecture</title>
  <desc id="d">Users interact with Web or Teams. The channel routes to a Contract Intake and Drafting Agent hosted in Microsoft Foundry. The agent uses Azure OpenAI, grounds on Azure AI Search + Blob via Foundry IQ (which also reads SharePoint), runs external research via WebIQ (Bing Search), and looks up structured contract data in Azure SQL. Every call is traced to Application Insights. GitHub Actions runs the evaluation gate.</desc>
  <defs>
    <linearGradient id="bg" x1="0" y1="0" x2="1" y2="1">
      <stop offset="0" stop-color="#F3F9FF"/><stop offset="1" stop-color="#F6EEF9"/>
    </linearGradient>
    <linearGradient id="agentG" x1="0" y1="0" x2="1" y2="1">
      <stop offset="0" stop-color="#0078D4"/><stop offset="1" stop-color="#5C2D91"/>
    </linearGradient>
    <marker id="arr" viewBox="0 0 10 10" refX="9" refY="5" markerWidth="8" markerHeight="8" orient="auto-start-reverse">
      <path d="M0 0 L10 5 L0 10 z" fill="#605E5C"/>
    </marker>
    <style>
      .lbl { font-size: 11px; fill: #605E5C; }
      .h   { font-size: 14px; font-weight: 700; fill: #201F1E; }
      .b   { font-size: 12px; font-weight: 600; }
    </style>
  </defs>
  <rect width="1200" height="680" fill="url(#bg)"/>

  <!-- USERS -->
  <rect x="30" y="60" width="200" height="560" rx="14" fill="#FFF" stroke="#E1DFDD"/>
  <text x="130" y="90" text-anchor="middle" class="h">Users</text>
  <rect x="50" y="120" width="160" height="70" rx="10" fill="#DEECF9" stroke="#0078D4"/>
  <text x="130" y="150" text-anchor="middle" class="b" fill="#0078D4">Legal</text>
  <text x="130" y="170" text-anchor="middle" class="lbl">Contract review</text>
  <rect x="50" y="210" width="160" height="70" rx="10" fill="#F3EAFF" stroke="#5C2D91"/>
  <text x="130" y="240" text-anchor="middle" class="b" fill="#5C2D91">Procurement</text>
  <text x="130" y="260" text-anchor="middle" class="lbl">Vendor onboarding</text>
  <rect x="50" y="300" width="160" height="70" rx="10" fill="#E6FBF6" stroke="#00B294"/>
  <text x="130" y="330" text-anchor="middle" class="b" fill="#008A72">Sales</text>
  <text x="130" y="350" text-anchor="middle" class="lbl">Deal drafting</text>

  <rect x="50" y="400" width="160" height="200" rx="10" fill="#FFF7E6" stroke="#FFB900"/>
  <text x="130" y="430" text-anchor="middle" class="b" fill="#8A6100">Channel</text>
  <rect x="65" y="450" width="130" height="55" rx="8" fill="#FFFFFF" stroke="#FFB900"/>
  <text x="130" y="475" text-anchor="middle" class="b" fill="#8A6100">Web App</text>
  <text x="130" y="493" text-anchor="middle" class="lbl">Easy Auth</text>
  <rect x="65" y="520" width="130" height="55" rx="8" fill="#FFFFFF" stroke="#FFB900"/>
  <text x="130" y="545" text-anchor="middle" class="b" fill="#8A6100">Teams / API</text>
  <text x="130" y="563" text-anchor="middle" class="lbl">Bot + REST</text>

  <!-- FOUNDRY -->
  <rect x="280" y="60" width="560" height="560" rx="18" fill="#FFF" stroke="#0078D4" stroke-width="2"/>
  <text x="560" y="90" text-anchor="middle" class="h">Microsoft Foundry &#183; prj-clm-hackathon</text>

  <rect x="330" y="120" width="460" height="105" rx="14" fill="url(#agentG)"/>
  <text x="560" y="152" text-anchor="middle" font-size="16" font-weight="700" fill="#FFF">Contract Intake &amp; Drafting Agent</text>
  <text x="560" y="176" text-anchor="middle" font-size="12" fill="#E6F0FF">Persona &#183; Guardrails &#183; Tool routing</text>
  <text x="560" y="200" text-anchor="middle" font-size="12" fill="#E6F0FF">gpt-4o &#183; temp 0.2 &#183; top_p 0.9</text>

  <!-- Model, Knowledge, Tools -->
  <rect x="330" y="250" width="140" height="90" rx="10" fill="#DEECF9" stroke="#0078D4"/>
  <text x="400" y="278" text-anchor="middle" class="b" fill="#0078D4">Azure OpenAI</text>
  <text x="400" y="298" text-anchor="middle" class="lbl">gpt-4o</text>
  <text x="400" y="315" text-anchor="middle" class="lbl">text-embedding-3-large</text>

  <rect x="490" y="250" width="140" height="90" rx="10" fill="#E6FBF6" stroke="#00B294"/>
  <text x="560" y="278" text-anchor="middle" class="b" fill="#008A72">Knowledge</text>
  <text x="560" y="298" text-anchor="middle" class="lbl">Azure AI Search</text>
  <text x="560" y="315" text-anchor="middle" class="lbl">+ File Search</text>

  <rect x="650" y="250" width="140" height="90" rx="10" fill="#F3EAFF" stroke="#5C2D91"/>
  <text x="720" y="278" text-anchor="middle" class="b" fill="#5C2D91">Tools</text>
  <text x="720" y="298" text-anchor="middle" class="lbl">Foundry IQ &#183; WebIQ</text>
  <text x="720" y="315" text-anchor="middle" class="lbl">Azure SQL</text>

  <!-- Safety -->
  <rect x="330" y="360" width="460" height="60" rx="10" fill="#FFF7E6" stroke="#FFB900"/>
  <text x="560" y="385" text-anchor="middle" class="b" fill="#8A6100">Content Safety &#183; Prompt Shields &#183; PII detection</text>
  <text x="560" y="405" text-anchor="middle" class="lbl">jailbreak &amp; indirect-attack detection &#183; blocklists</text>

  <!-- Eval + tracing -->
  <rect x="330" y="440" width="220" height="80" rx="10" fill="#FDECEC" stroke="#D13438"/>
  <text x="440" y="468" text-anchor="middle" class="b" fill="#A4262C">Evaluators</text>
  <text x="440" y="486" text-anchor="middle" class="lbl">Groundedness &#183; Relevance</text>
  <text x="440" y="502" text-anchor="middle" class="lbl">Task adherence &#183; Safety</text>

  <rect x="570" y="440" width="220" height="80" rx="10" fill="#DEECF9" stroke="#0078D4"/>
  <text x="680" y="468" text-anchor="middle" class="b" fill="#0078D4">Tracing</text>
  <text x="680" y="486" text-anchor="middle" class="lbl">OpenTelemetry &#8594;</text>
  <text x="680" y="502" text-anchor="middle" class="lbl">Application Insights</text>

  <!-- Threads/messages -->
  <rect x="330" y="540" width="460" height="55" rx="10" fill="#F3F5FB" stroke="#0078D4"/>
  <text x="560" y="566" text-anchor="middle" class="b" fill="#201F1E">Thread &#183; message history</text>
  <text x="560" y="584" text-anchor="middle" class="lbl">create_message &#8594; create_and_process_run &#8594; list_messages</text>

  <!-- ACTIONS -->
  <rect x="880" y="60" width="290" height="560" rx="14" fill="#FFF" stroke="#E1DFDD"/>
  <text x="1025" y="90" text-anchor="middle" class="h">Enterprise systems</text>

  <rect x="900" y="120" width="250" height="70" rx="10" fill="#DEECF9" stroke="#0078D4"/>
  <text x="1025" y="150" text-anchor="middle" class="b" fill="#0078D4">Azure AI Search</text>
  <text x="1025" y="170" text-anchor="middle" class="lbl">idx-clm-contracts &#183; vector + semantic</text>

  <rect x="900" y="210" width="250" height="70" rx="10" fill="#F3EAFF" stroke="#5C2D91"/>
  <text x="1025" y="240" text-anchor="middle" class="b" fill="#5C2D91">WebIQ</text>
  <text x="1025" y="260" text-anchor="middle" class="lbl">Bing Search &#183; market intel</text>

  <rect x="900" y="300" width="250" height="70" rx="10" fill="#E6FBF6" stroke="#00B294"/>
  <text x="1025" y="330" text-anchor="middle" class="b" fill="#008A72">Azure SQL</text>
  <text x="1025" y="350" text-anchor="middle" class="lbl">contract metadata &#183; status &#183; KPIs</text>

  <rect x="900" y="390" width="250" height="70" rx="10" fill="#FFF7E6" stroke="#FFB900"/>
  <text x="1025" y="420" text-anchor="middle" class="b" fill="#8A6100">Blob Storage</text>
  <text x="1025" y="440" text-anchor="middle" class="lbl">clm-corpus &#183; templates + policies</text>

  <rect x="900" y="480" width="250" height="60" rx="10" fill="#FDECEC" stroke="#D13438"/>
  <text x="1025" y="506" text-anchor="middle" class="b" fill="#A4262C">GitHub Actions</text>
  <text x="1025" y="524" text-anchor="middle" class="lbl">CI evaluation gate</text>

  <rect x="900" y="555" width="250" height="55" rx="10" fill="#FFFFFF" stroke="#0078D4"/>
  <text x="1025" y="580" text-anchor="middle" class="b" fill="#0078D4">Application Insights</text>
  <text x="1025" y="598" text-anchor="middle" class="lbl">metrics &#183; logs &#183; KQL</text>

  <!-- Arrows -->
  <g stroke="#605E5C" stroke-width="1.5" fill="none" marker-end="url(#arr)">
    <path d="M230 475 H 280 V 175"/>
    <path d="M230 545 H 280 V 175"/>
    <path d="M790 295 H 880 V 155"/>
    <path d="M790 295 H 880 V 245"/>
    <path d="M790 295 H 880 V 335"/>
    <path d="M790 305 H 880 V 425"/>
    <path d="M790 480 H 880 V 510"/>
    <path d="M790 480 H 880 V 580"/>
  </g>

  <text x="30" y="655" class="lbl">1 &#183; User &#8594; channel</text>
  <text x="280" y="655" class="lbl">2 &#183; Channel &#8594; Foundry agent</text>
  <text x="560" y="655" class="lbl">3 &#183; Agent &#8594; tools &amp; knowledge</text>
  <text x="880" y="655" class="lbl">4 &#183; Enterprise systems &#183; traced &amp; gated</text>
</svg>
