<svg xmlns="http://www.w3.org/2000/svg" viewBox="0 0 1000 520" role="img" font-family="Segoe UI, Arial, sans-serif">
  <title>Challenge 3 &middot; Tools &amp; actions</title>
  <defs>
    <marker id="a" viewBox="0 0 10 10" refX="9" refY="5" markerWidth="8" markerHeight="8" orient="auto-start-reverse">
      <path d="M0 0 L10 5 L0 10 z" fill="#605E5C"/>
    </marker>
  </defs>
  <rect width="1000" height="520" fill="#F8FAFC"/>
  <rect x="290" y="140" width="220" height="240" rx="18" fill="#FFF" stroke="#0078D4" stroke-width="2"/>
  <text x="400" y="170" text-anchor="middle" font-size="14" font-weight="700" fill="#201F1E">Contract Agent</text>
  <text x="400" y="195" text-anchor="middle" font-size="12" fill="#605E5C">Tool router</text>
  <rect x="310" y="215" width="180" height="42" rx="8" fill="#DEECF9" stroke="#0078D4"/>
  <text x="400" y="242" text-anchor="middle" font-size="12" font-weight="600" fill="#0078D4">Function-calling loop</text>
  <rect x="310" y="270" width="180" height="42" rx="8" fill="#FFF7E6" stroke="#FFB900"/>
  <text x="400" y="297" text-anchor="middle" font-size="12" font-weight="600" fill="#8A6100">HITL confirm</text>
  <rect x="310" y="325" width="180" height="42" rx="8" fill="#F3EAFF" stroke="#5C2D91"/>
  <text x="400" y="352" text-anchor="middle" font-size="12" font-weight="600" fill="#5C2D91">Response composer</text>

  <rect x="600" y="60" width="180" height="70" rx="10" fill="#E6FBF6" stroke="#00B294"/>
  <text x="690" y="88" text-anchor="middle" font-size="12" font-weight="700" fill="#008A72">1. Azure AI Search</text>
  <text x="690" y="106" text-anchor="middle" font-size="10" fill="#605E5C">clause / template search</text>

  <rect x="600" y="140" width="180" height="70" rx="10" fill="#DEECF9" stroke="#0078D4"/>
  <text x="690" y="168" text-anchor="middle" font-size="12" font-weight="700" fill="#0078D4">2. File Search</text>
  <text x="690" y="186" text-anchor="middle" font-size="10" fill="#605E5C">per-thread uploads</text>

  <rect x="600" y="220" width="180" height="70" rx="10" fill="#F3EAFF" stroke="#5C2D91"/>
  <text x="690" y="248" text-anchor="middle" font-size="12" font-weight="700" fill="#5C2D91">3. Power Automate</text>
  <text x="690" y="266" text-anchor="middle" font-size="10" fill="#605E5C">approval routing</text>

  <rect x="600" y="300" width="180" height="70" rx="10" fill="#FFF7E6" stroke="#FFB900"/>
  <text x="690" y="328" text-anchor="middle" font-size="12" font-weight="700" fill="#8A6100">4. Azure Functions</text>
  <text x="690" y="346" text-anchor="middle" font-size="10" fill="#605E5C">status / risk / clause</text>

  <rect x="600" y="380" width="180" height="70" rx="10" fill="#FDECEC" stroke="#D13438"/>
  <text x="690" y="408" text-anchor="middle" font-size="12" font-weight="700" fill="#A4262C">5. Code Interpreter</text>
  <text x="690" y="426" text-anchor="middle" font-size="10" fill="#605E5C">summaries / reports</text>

  <rect x="830" y="60" width="150" height="390" rx="12" fill="#FFF" stroke="#E1DFDD"/>
  <text x="905" y="88" text-anchor="middle" font-size="12" font-weight="700" fill="#201F1E">Systems</text>
  <text x="905" y="120" text-anchor="middle" font-size="11" fill="#605E5C">AI Search</text>
  <text x="905" y="180" text-anchor="middle" font-size="11" fill="#605E5C">File Search</text>
  <text x="905" y="240" text-anchor="middle" font-size="11" fill="#605E5C">O365 approver</text>
  <text x="905" y="300" text-anchor="middle" font-size="11" fill="#605E5C">Cosmos / SQL</text>
  <text x="905" y="360" text-anchor="middle" font-size="11" fill="#605E5C">Sandbox VM</text>

  <rect x="40" y="220" width="180" height="80" rx="10" fill="#FFF" stroke="#E1DFDD"/>
  <text x="130" y="248" text-anchor="middle" font-size="13" font-weight="700" fill="#201F1E">User</text>
  <text x="130" y="266" text-anchor="middle" font-size="10" fill="#605E5C">Draft NDA with Fabrikam</text>
  <text x="130" y="282" text-anchor="middle" font-size="10" fill="#605E5C">then send to Legal</text>

  <g stroke="#605E5C" stroke-width="1.5" fill="none" marker-end="url(#a)">
    <path d="M220 260 H 290"/>
    <path d="M510 236 C 550 236, 570 95, 600 95"/>
    <path d="M510 236 C 550 236, 570 175, 600 175"/>
    <path d="M510 292 C 550 292, 570 255, 600 255"/>
    <path d="M510 292 C 550 292, 570 335, 600 335"/>
    <path d="M510 346 C 550 346, 570 415, 600 415"/>
    <path d="M780 95 H 830 V 120"/>
    <path d="M780 175 H 830 V 180"/>
    <path d="M780 255 H 830 V 240"/>
    <path d="M780 335 H 830 V 300"/>
    <path d="M780 415 H 830 V 360"/>
  </g>
  <text x="500" y="490" text-anchor="middle" font-size="11" fill="#605E5C">Five tools &#183; deterministic JSON schemas &#183; HITL gate before any state-changing action</text>
</svg>
