<svg xmlns="http://www.w3.org/2000/svg" viewBox="0 0 1000 520" role="img" font-family="Segoe UI, Arial, sans-serif">
  <title>Challenge 2 &middot; Knowledge grounding with Azure AI Search</title>
  <defs>
    <marker id="a" viewBox="0 0 10 10" refX="9" refY="5" markerWidth="8" markerHeight="8" orient="auto-start-reverse">
      <path d="M0 0 L10 5 L0 10 z" fill="#605E5C"/>
    </marker>
  </defs>
  <rect width="1000" height="520" fill="#F8FAFC"/>
  <rect x="30" y="40" width="200" height="440" rx="12" fill="#FFF" stroke="#E1DFDD"/>
  <text x="130" y="68" text-anchor="middle" font-size="13" font-weight="700" fill="#201F1E">Corpus</text>
  <rect x="50" y="90" width="160" height="60" rx="8" fill="#FFF7E6" stroke="#FFB900"/>
  <text x="130" y="115" text-anchor="middle" font-size="12" font-weight="600" fill="#8A6100">Contract templates</text>
  <text x="130" y="133" text-anchor="middle" font-size="10" fill="#605E5C">NDA / MSA / SOW</text>
  <rect x="50" y="160" width="160" height="60" rx="8" fill="#DEECF9" stroke="#0078D4"/>
  <text x="130" y="185" text-anchor="middle" font-size="12" font-weight="600" fill="#0078D4">Approved clauses</text>
  <text x="130" y="203" text-anchor="middle" font-size="10" fill="#605E5C">payment / liability</text>
  <rect x="50" y="230" width="160" height="60" rx="8" fill="#F3EAFF" stroke="#5C2D91"/>
  <text x="130" y="255" text-anchor="middle" font-size="12" font-weight="600" fill="#5C2D91">Policies</text>
  <text x="130" y="273" text-anchor="middle" font-size="10" fill="#605E5C">legal / procurement</text>
  <rect x="50" y="300" width="160" height="60" rx="8" fill="#E6FBF6" stroke="#00B294"/>
  <text x="130" y="325" text-anchor="middle" font-size="12" font-weight="600" fill="#008A72">Historical contracts</text>
  <text x="130" y="343" text-anchor="middle" font-size="10" fill="#605E5C">signed PDFs / DOCX</text>
  <rect x="50" y="370" width="160" height="60" rx="8" fill="#F3F5FB" stroke="#605E5C"/>
  <text x="130" y="395" text-anchor="middle" font-size="12" font-weight="600" fill="#605E5C">User uploads</text>
  <text x="130" y="413" text-anchor="middle" font-size="10" fill="#605E5C">File Search (per-thread)</text>

  <rect x="280" y="200" width="150" height="110" rx="10" fill="#FFF7E6" stroke="#FFB900"/>
  <text x="355" y="230" text-anchor="middle" font-size="13" font-weight="700" fill="#8A6100">Blob container</text>
  <text x="355" y="248" text-anchor="middle" font-size="11" fill="#605E5C">clm-corpus</text>
  <text x="355" y="278" text-anchor="middle" font-size="10" fill="#605E5C">source of truth</text>

  <rect x="470" y="130" width="180" height="80" rx="10" fill="#F3EAFF" stroke="#5C2D91"/>
  <text x="560" y="158" text-anchor="middle" font-size="13" font-weight="700" fill="#5C2D91">Chunk + embed</text>
  <text x="560" y="178" text-anchor="middle" font-size="10" fill="#605E5C">1024 tokens / 100 overlap</text>
  <text x="560" y="194" text-anchor="middle" font-size="10" fill="#605E5C">text-embedding-3-large</text>

  <rect x="470" y="230" width="180" height="80" rx="10" fill="#DEECF9" stroke="#0078D4"/>
  <text x="560" y="258" text-anchor="middle" font-size="13" font-weight="700" fill="#0078D4">Skillset</text>
  <text x="560" y="278" text-anchor="middle" font-size="10" fill="#605E5C">split &#183; embed &#183; project</text>
  <text x="560" y="294" text-anchor="middle" font-size="10" fill="#605E5C">every 15 min indexer</text>

  <rect x="690" y="180" width="200" height="140" rx="10" fill="#E6FBF6" stroke="#00B294"/>
  <text x="790" y="210" text-anchor="middle" font-size="13" font-weight="700" fill="#008A72">Azure AI Search</text>
  <text x="790" y="230" text-anchor="middle" font-size="11" fill="#605E5C">idx-clm-contracts</text>
  <text x="790" y="260" text-anchor="middle" font-size="10" fill="#605E5C">HNSW vector index</text>
  <text x="790" y="278" text-anchor="middle" font-size="10" fill="#605E5C">semantic ranker</text>
  <text x="790" y="296" text-anchor="middle" font-size="10" fill="#605E5C">hybrid retrieval</text>

  <rect x="380" y="390" width="240" height="80" rx="10" fill="#FFF" stroke="#0078D4" stroke-width="2"/>
  <text x="500" y="420" text-anchor="middle" font-size="13" font-weight="700" fill="#0078D4">Contract Agent</text>
  <text x="500" y="440" text-anchor="middle" font-size="11" fill="#605E5C">top-k = 5, semantic hybrid</text>
  <text x="500" y="456" text-anchor="middle" font-size="10" fill="#605E5C">grounded reply + citations</text>

  <g stroke="#605E5C" stroke-width="1.5" fill="none" marker-end="url(#a)">
    <path d="M210 120 C 250 120, 260 225, 280 225"/>
    <path d="M210 190 C 250 190, 260 250, 280 250"/>
    <path d="M210 260 C 250 260, 260 275, 280 275"/>
    <path d="M210 330 C 250 330, 260 290, 280 290"/>
    <path d="M210 400 C 250 400, 260 305, 280 305"/>
    <path d="M430 240 H 470"/>
    <path d="M650 170 C 675 170, 675 220, 690 220"/>
    <path d="M650 270 H 690"/>
    <path d="M790 320 V 400 H 620"/>
    <path d="M500 470 V 480 H 790 V 320"/>
  </g>
</svg>
