<svg xmlns="http://www.w3.org/2000/svg" viewBox="0 0 1000 520" role="img" font-family="Segoe UI, Arial, sans-serif">
  <title>Challenge 3 &middot; Tools &amp; actions</title>
  <defs>
    <marker id="a" viewBox="0 0 10 10" refX="9" refY="5" markerWidth="8" markerHeight="8" orient="auto-start-reverse">
      <path d="M0 0 L10 5 L0 10 z" fill="#605E5C"/>
    </marker>
  </defs>
  <rect width="1000" height="520" fill="#F8FAFC"/>
  <rect x="290" y="140" width="220" height="240" rx="18" fill="#FFF" stroke="#0078D4" stroke-width="2"/>
  <text x="400" y="170" text-anchor="middle" font-size="14" font-weight="700" fill="#201F1E">Contract Agent</text>
  <text x="400" y="195" text-anchor="middle" font-size="12" fill="#605E5C">Tool router</text>
  <rect x="310" y="215" width="180" height="42" rx="8" fill="#DEECF9" stroke="#0078D4"/>
  <text x="400" y="242" text-anchor="middle" font-size="12" font-weight="600" fill="#0078D4">Function-calling loop</text>
  <rect x="310" y="270" width="180" height="42" rx="8" fill="#FFF7E6" stroke="#FFB900"/>
  <text x="400" y="297" text-anchor="middle" font-size="12" font-weight="600" fill="#8A6100">HITL confirm</text>
  <rect x="310" y="325" width="180" height="42" rx="8" fill="#F3EAFF" stroke="#5C2D91"/>
  <text x="400" y="352" text-anchor="middle" font-size="12" font-weight="600" fill="#5C2D91">Response composer</text>

  <rect x="600" y="120" width="180" height="90" rx="10" fill="#E6FBF6" stroke="#00B294"/>
  <text x="690" y="150" text-anchor="middle" font-size="12" font-weight="700" fill="#008A72">1. Foundry IQ</text>
  <text x="690" y="170" text-anchor="middle" font-size="10" fill="#605E5C">Azure AI Search + SharePoint</text>
  <text x="690" y="188" text-anchor="middle" font-size="10" fill="#605E5C">contracts &#183; templates &#183; policies</text>

  <rect x="600" y="220" width="180" height="90" rx="10" fill="#F3EAFF" stroke="#5C2D91"/>
  <text x="690" y="250" text-anchor="middle" font-size="12" font-weight="700" fill="#5C2D91">2. WebIQ</text>
  <text x="690" y="270" text-anchor="middle" font-size="10" fill="#605E5C">Bing Search</text>
  <text x="690" y="288" text-anchor="middle" font-size="10" fill="#605E5C">market intel &#183; regulatory news</text>

  <rect x="600" y="320" width="180" height="90" rx="10" fill="#DEECF9" stroke="#0078D4"/>
  <text x="690" y="350" text-anchor="middle" font-size="12" font-weight="700" fill="#0078D4">3. Azure SQL</text>
  <text x="690" y="370" text-anchor="middle" font-size="10" fill="#605E5C">clm_contracts</text>
  <text x="690" y="388" text-anchor="middle" font-size="10" fill="#605E5C">status &#183; dates &#183; renewals &#183; KPIs</text>

  <rect x="830" y="60" width="150" height="390" rx="12" fill="#FFF" stroke="#E1DFDD"/>
  <text x="905" y="88" text-anchor="middle" font-size="12" font-weight="700" fill="#201F1E">Systems</text>
  <text x="905" y="165" text-anchor="middle" font-size="11" fill="#605E5C">AI Search + SharePoint</text>
  <text x="905" y="265" text-anchor="middle" font-size="11" fill="#605E5C">Bing Search</text>
  <text x="905" y="365" text-anchor="middle" font-size="11" fill="#605E5C">Azure SQL DB</text>

  <rect x="40" y="220" width="180" height="80" rx="10" fill="#FFF" stroke="#E1DFDD"/>
  <text x="130" y="248" text-anchor="middle" font-size="13" font-weight="700" fill="#201F1E">User</text>
  <text x="130" y="266" text-anchor="middle" font-size="10" fill="#605E5C">Draft NDA with Fabrikam</text>
  <text x="130" y="282" text-anchor="middle" font-size="10" fill="#605E5C">then send to Legal</text>

  <g stroke="#605E5C" stroke-width="1.5" fill="none" marker-end="url(#a)">
    <path d="M220 260 H 290"/>
    <path d="M510 236 C 550 236, 570 165, 600 165"/>
    <path d="M510 292 C 550 292, 570 265, 600 265"/>
    <path d="M510 346 C 550 346, 570 365, 600 365"/>
    <path d="M780 165 H 830 V 165"/>
    <path d="M780 265 H 830 V 265"/>
    <path d="M780 365 H 830 V 365"/>
  </g>
  <text x="500" y="490" text-anchor="middle" font-size="11" fill="#605E5C">Three tools &#183; deterministic JSON schemas &#183; HITL gate before any state-changing action</text>
</svg>
