<svg xmlns="http://www.w3.org/2000/svg" viewBox="0 0 1000 520" role="img" font-family="Segoe UI, Arial, sans-serif">
  <title>Challenge 8 &middot; Publish and monitor</title>
  <defs>
    <marker id="a" viewBox="0 0 10 10" refX="9" refY="5" markerWidth="8" markerHeight="8" orient="auto-start-reverse">
      <path d="M0 0 L10 5 L0 10 z" fill="#605E5C"/>
    </marker>
  </defs>
  <rect width="1000" height="520" fill="#F8FAFC"/>

  <rect x="30" y="180" width="150" height="120" rx="10" fill="#FFF" stroke="#E1DFDD"/>
  <text x="105" y="210" text-anchor="middle" font-size="13" font-weight="700" fill="#201F1E">GitHub</text>
  <text x="105" y="232" text-anchor="middle" font-size="11" fill="#605E5C">Repo + Actions</text>
  <text x="105" y="252" text-anchor="middle" font-size="10" fill="#605E5C">gate.yml + deploy.yml</text>
  <text x="105" y="270" text-anchor="middle" font-size="10" fill="#605E5C">branch protection</text>

  <rect x="220" y="80" width="180" height="80" rx="10" fill="#FFF7E6" stroke="#FFB900"/>
  <text x="310" y="108" text-anchor="middle" font-size="13" font-weight="700" fill="#8A6100">Evaluation gate</text>
  <text x="310" y="128" text-anchor="middle" font-size="10" fill="#605E5C">azure-ai-evaluation</text>
  <text x="310" y="144" text-anchor="middle" font-size="10" fill="#605E5C">must pass thresholds</text>

  <rect x="220" y="200" width="180" height="80" rx="10" fill="#E6FBF6" stroke="#00B294"/>
  <text x="310" y="228" text-anchor="middle" font-size="13" font-weight="700" fill="#008A72">Deploy</text>
  <text x="310" y="248" text-anchor="middle" font-size="10" fill="#605E5C">az webapp deploy</text>
  <text x="310" y="264" text-anchor="middle" font-size="10" fill="#605E5C">slot swap on approval</text>

  <rect x="440" y="60" width="220" height="380" rx="14" fill="#FFF" stroke="#0078D4" stroke-width="2"/>
  <text x="550" y="90" text-anchor="middle" font-size="13" font-weight="700" fill="#201F1E">Azure runtime</text>

  <rect x="460" y="110" width="180" height="60" rx="8" fill="#DEECF9" stroke="#0078D4"/>
  <text x="550" y="134" text-anchor="middle" font-size="12" font-weight="600" fill="#0078D4">Front Door + WAF</text>
  <text x="550" y="152" text-anchor="middle" font-size="10" fill="#605E5C">TLS &amp; rate limit</text>

  <rect x="460" y="185" width="180" height="60" rx="8" fill="#F3EAFF" stroke="#5C2D91"/>
  <text x="550" y="209" text-anchor="middle" font-size="12" font-weight="600" fill="#5C2D91">Web App + Easy Auth</text>
  <text x="550" y="227" text-anchor="middle" font-size="10" fill="#605E5C">Entra ID / Contracts-Users</text>

  <rect x="460" y="260" width="180" height="60" rx="8" fill="#FFF" stroke="#0078D4" stroke-width="2"/>
  <text x="550" y="284" text-anchor="middle" font-size="12" font-weight="600" fill="#0078D4">FastAPI proxy</text>
  <text x="550" y="302" text-anchor="middle" font-size="10" fill="#605E5C">/api/turn &#183; /api/upload</text>

  <rect x="460" y="335" width="180" height="45" rx="8" fill="#E6FBF6" stroke="#00B294"/>
  <text x="550" y="362" text-anchor="middle" font-size="11" font-weight="600" fill="#008A72">Managed Identity &#8594; Foundry</text>

  <rect x="460" y="390" width="180" height="40" rx="8" fill="#FFF7E6" stroke="#FFB900"/>
  <text x="550" y="415" text-anchor="middle" font-size="11" font-weight="600" fill="#8A6100">Teams bot &#183; API clients</text>

  <rect x="700" y="80" width="200" height="140" rx="10" fill="#DEECF9" stroke="#0078D4"/>
  <text x="800" y="110" text-anchor="middle" font-size="13" font-weight="700" fill="#0078D4">Foundry project</text>
  <text x="800" y="130" text-anchor="middle" font-size="11" fill="#605E5C">Contract Agent</text>
  <text x="800" y="150" text-anchor="middle" font-size="10" fill="#605E5C">gpt-4o + tools + knowledge</text>
  <text x="800" y="180" text-anchor="middle" font-size="10" fill="#605E5C">RBAC: Cognitive Services User</text>
  <text x="800" y="200" text-anchor="middle" font-size="10" fill="#605E5C">granted to Web App MI</text>

  <rect x="700" y="240" width="200" height="200" rx="10" fill="#FDECEC" stroke="#D13438"/>
  <text x="800" y="268" text-anchor="middle" font-size="13" font-weight="700" fill="#A4262C">Application Insights</text>
  <text x="800" y="288" text-anchor="middle" font-size="11" fill="#605E5C">Traces &#183; metrics &#183; KQL</text>
  <text x="800" y="315" text-anchor="middle" font-size="10" fill="#605E5C">Alerts:</text>
  <text x="800" y="332" text-anchor="middle" font-size="10" fill="#605E5C">&#8211; safety event</text>
  <text x="800" y="348" text-anchor="middle" font-size="10" fill="#605E5C">&#8211; p95 latency</text>
  <text x="800" y="364" text-anchor="middle" font-size="10" fill="#605E5C">&#8211; token cost</text>
  <text x="800" y="380" text-anchor="middle" font-size="10" fill="#605E5C">&#8211; error rate</text>
  <text x="800" y="405" text-anchor="middle" font-size="10" fill="#605E5C">feedback thumbs &#8594;</text>
  <text x="800" y="422" text-anchor="middle" font-size="10" fill="#605E5C">weekly review</text>

  <g stroke="#605E5C" stroke-width="1.5" fill="none" marker-end="url(#a)">
    <path d="M180 220 H 220 V 120"/>
    <path d="M180 260 H 220 V 240"/>
    <path d="M400 240 H 440 V 165"/>
    <path d="M550 170 V 185"/>
    <path d="M550 245 V 260"/>
    <path d="M550 320 V 335"/>
    <path d="M640 360 C 670 360, 670 150, 700 150"/>
    <path d="M900 150 C 920 150, 920 260, 900 260"/>
  </g>
  <text x="500" y="480" text-anchor="middle" font-size="11" fill="#605E5C">Every deploy passes the gate &#183; every turn is authenticated, authorized, and traced</text>
</svg>
